<svg xmlns="http://www.w3.org/2000/svg" xmlns:xlink="http://www.w3.org/1999/xlink" viewBox="0 0 910.96 229.86"><defs><style>.cls-1{font-size:113.39px;font-family:Poppins-Bold, Poppins;font-weight:700;}.cls-2{fill:url(#linear-gradient);}.cls-3{fill:#fefdff;}.cls-4{fill:#fff;}</style><linearGradient id="linear-gradient" y1="94.71" x2="189.42" y2="94.71" gradientUnits="userSpaceOnUse"><stop offset="0" stop-color="#4b2473"/><stop offset="1" stop-color="#049abd"/></linearGradient></defs><g id="Layer_2" data-name="Layer 2"><g id="Layer_1-2" data-name="Layer 1"><text class="cls-1" transform="translate(197.76 161.15)">illing Corner</text><circle class="cls-2" cx="94.71" cy="94.71" r="94.71"/><path class="cls-3" d="M120.94,176.91c0-6.58-.09-12.86.09-19.13,0-1,1.18-2.11,2-2.9,21.86-19.93,17.91-56.36-2.28-73-11.08-9.1-24.21-12.46-38.38-11.19C62.79,72.49,47.93,82.45,36.63,98.22c-.32.45-.66.89-1.42,1.93V5.26h16.6V61.92c1.64-.76,2.72-1.27,3.82-1.75,24.7-10.77,48.9-9.8,71.38,5.16,19.69,13.09,28,32.85,27.71,56.13-.28,22.61-9.91,40.41-28.86,53-1,.69-2.13,1.27-3.22,1.86A13.54,13.54,0,0,1,120.94,176.91Z"/><path class="cls-4" d="M114.39,114.3c-1.91-2.78-3.18-4.91-4.7-6.83C95.23,89.21,72,92.93,59.55,108.69c-8.81,11.17-9.85,23.86-4.61,36.82,5.14,12.72,15.53,18.85,28.66,21a48.15,48.15,0,0,0,30.76-5.11c0,6.22,0,11.91-.08,17.6,0,.61-.9,1.52-1.58,1.76-20.77,7.44-57.64,4.48-72.35-25.6C23.15,120,47.1,79.39,86.1,78a46.85,46.85,0,0,1,24.43,5.81c2.74,1.48,4.08,3.23,4,6.61C114.18,98,114.39,105.72,114.39,114.3Z"/><polyline class="cls-3" points="73.62 126.7 64.53 130.69 70.87 140.24 83.99 161.15 87.94 160.4 69.83 132.86 74.7 131.1"/><path class="cls-3" d="M66.24,113.54l34-7.13,2.55,10.67,9.52-1.3s5.48,20.28,3.13,26.23c0,0-3.31-18.73-5.85-20.6l-25.36,6.2s7.2,16.64,5.67,20.66L78.51,123.76l20.57-5.71-1.84-6.26-24.43,5.84,12.62,35.68L66,114.2"/><line class="cls-3" x1="92.39" y1="132.19" x2="106.3" y2="129.46"/><line class="cls-3" x1="93.36" y1="135.31" x2="106.91" y2="132.66"/><line class="cls-3" x1="94.25" y1="138.57" x2="107.84" y2="135.91"/><line class="cls-3" x1="95.6" y1="141.75" x2="108.81" y2="139.17"/><line class="cls-3" x1="96.54" y1="144.82" x2="109.57" y2="142.27"/></g></g></svg>