<svg xmlns="http://www.w3.org/2000/svg" xmlns:xlink="http://www.w3.org/1999/xlink" viewBox="0 0 189.42 189.42"><defs><style>.cls-1{fill:url(#linear-gradient);}.cls-2{fill:#fff;}</style><linearGradient id="linear-gradient" x1="-35.46" y1="94.71" x2="282.67" y2="94.71" gradientUnits="userSpaceOnUse"><stop offset="0" stop-color="#00326f"/><stop offset="0.16" stop-color="#01477f"/><stop offset="0.54" stop-color="#0374a1"/><stop offset="0.83" stop-color="#0490b5"/><stop offset="1" stop-color="#049abd"/></linearGradient></defs><g id="Layer_2" data-name="Layer 2"><g id="Layer_1-2" data-name="Layer 1"><circle class="cls-1" cx="94.71" cy="94.71" r="94.71"/><path class="cls-2" d="M118.19,154c0-5-.07-9.7.07-14.44,0-.74.89-1.58,1.55-2.18,16.49-15,13.51-42.53-1.72-55-8.36-6.87-18.27-9.41-29-8.45-14.81,1.33-26,8.85-34.55,20.75L53.5,96.08V24.48H66V67.23c1.24-.57,2-1,2.88-1.32,18.64-8.13,36.9-7.39,53.86,3.89,14.86,9.88,21.12,24.79,20.91,42.36-.21,17.06-7.47,30.5-21.77,40-.78.52-1.61.95-2.44,1.4A9.1,9.1,0,0,1,118.19,154Z"/><path class="cls-2" d="M113.25,106.76c-1.44-2.1-2.4-3.7-3.55-5.16-10.91-13.77-28.44-11-37.83.93-6.65,8.43-7.43,18-3.48,27.78,3.88,9.59,11.72,14.22,21.63,15.81a36.26,36.26,0,0,0,23.21-3.85c0,4.69,0,9-.06,13.28,0,.46-.68,1.14-1.19,1.33-15.67,5.61-43.5,3.38-54.6-19.32A40.15,40.15,0,0,1,91.91,79.34a35.42,35.42,0,0,1,18.43,4.38c2.06,1.12,3.08,2.44,3,5C113.09,94.49,113.25,100.29,113.25,106.76Z"/><polyline class="cls-2" points="82.48 116.11 75.62 119.12 80.41 126.33 90.31 142.11 93.29 141.54 79.62 120.76 83.3 119.44"/><path class="cls-2" d="M76.92,106.19l25.62-5.39,1.93,8,7.18-1s4.13,15.3,2.36,19.79c0,0-2.49-14.13-4.41-15.55L90.46,116.8s5.44,12.56,4.28,15.6l-8.57-18.51,15.53-4.3-1.39-4.73-18.44,4.41L91.4,136.2,76.75,106.69"/><line class="cls-2" x1="96.65" y1="120.26" x2="107.15" y2="118.2"/><line class="cls-2" x1="97.38" y1="122.62" x2="107.61" y2="120.61"/><line class="cls-2" x1="98.05" y1="125.07" x2="108.31" y2="123.06"/><line class="cls-2" x1="99.07" y1="127.47" x2="109.04" y2="125.52"/><line class="cls-2" x1="99.78" y1="129.79" x2="109.61" y2="127.87"/></g></g></svg>