<svg xmlns="http://www.w3.org/2000/svg" viewBox="0 0 523.59 130.39"><defs><style>.cls-1{fill:#003470;}.cls-2{fill:#006ea1;}.cls-3{font-size:73.39px;font-family:Poppins-Bold, Poppins;font-weight:700;}</style></defs><g id="Layer_2" data-name="Layer 2"><g id="Layer_1-2" data-name="Layer 1"><path class="cls-1" d="M43.64,86.86c0-3.33,0-6.51,0-9.69,0-.5.59-1.06,1-1.46,11.07-10.09,9.07-28.52-1.15-36.92a25.89,25.89,0,0,0-19.42-5.66C14.22,34,6.7,39.06,1,47c-.16.23-.33.45-.72,1V0h8.4V28.67l1.93-.89c12.5-5.45,24.75-5,36.12,2.61C56.67,37,60.88,47,60.73,58.8c-.14,11.44-5,20.45-14.6,26.81-.52.35-1.08.64-1.63.94A5.52,5.52,0,0,1,43.64,86.86Z"/><path class="cls-2" d="M40.32,55.17c-1-1.4-1.6-2.48-2.37-3.45-7.32-9.24-19.08-7.36-25.37.62C8.12,58,7.59,64.41,10.24,71s7.86,9.54,14.51,10.6A24.33,24.33,0,0,0,40.31,79c0,3.14,0,6,0,8.9,0,.31-.46.77-.8.89C29,92.55,10.31,91.05,2.86,75.83A26.93,26.93,0,0,1,26,36.79a23.75,23.75,0,0,1,12.36,2.93,3.23,3.23,0,0,1,2,3.35C40.22,47,40.32,50.84,40.32,55.17Z"/><polyline class="cls-1" points="19.7 61.45 15.09 63.47 18.3 68.3 24.95 78.88 26.94 78.5 17.78 64.56 20.25 63.68"/><path class="cls-1" d="M16,54.79l17.18-3.61,1.3,5.4,4.81-.66S42,66.19,40.84,69.2c0,0-1.68-9.48-3-10.43L25.05,61.91s3.64,8.42,2.86,10.46L22.17,60l10.41-2.89-.93-3.17-12.37,3,6.39,18.06L15.85,55.13"/><line class="cls-1" x1="29.19" y1="64.23" x2="36.23" y2="62.85"/><line class="cls-1" x1="29.69" y1="65.81" x2="36.54" y2="64.47"/><line class="cls-1" x1="30.13" y1="67.45" x2="37.01" y2="66.11"/><line class="cls-1" x1="30.82" y1="69.07" x2="37.51" y2="67.76"/><line class="cls-1" x1="31.29" y1="70.62" x2="37.89" y2="69.33"/><text class="cls-3" transform="translate(61.94 85.91)">illing Corner</text></g></g></svg>